<svg id="visual" viewBox="0 0 1920 1080" width="1920" height="1080" xmlns="http://www.w3.org/2000/svg" xmlns:xlink="http://www.w3.org/1999/xlink" version="1.1"><rect x="0" y="0" width="1920" height="1080" fill="#001220"></rect><defs><linearGradient id="grad1_0" x1="43.8%" y1="0%" x2="100%" y2="100%"><stop offset="14.444444444444446%" stop-color="#001220" stop-opacity="1"></stop><stop offset="85.55555555555554%" stop-color="#001220" stop-opacity="1"></stop></linearGradient></defs><defs><linearGradient id="grad2_0" x1="0%" y1="0%" x2="56.3%" y2="100%"><stop offset="14.444444444444446%" stop-color="#001220" stop-opacity="1"></stop><stop offset="85.55555555555554%" stop-color="#001220" stop-opacity="1"></stop></linearGradient></defs><g transform="translate(1920, 0)"><path d="M0 540C-63 519.6 -125.9 499.3 -198.2 478.6C-270.6 457.9 -352.3 436.9 -381.8 381.8C-411.4 326.8 -388.8 237.7 -406.5 168.4C-424.2 99.1 -482.1 49.5 -540 0L0 0Z" fill="#efefef"></path></g><g transform="translate(0, 1080)"><path d="M0 -540C52.2 -482.6 104.3 -425.1 166.1 -401C227.8 -376.8 299.2 -386 359.9 -359.9C420.6 -333.8 470.7 -272.5 498.9 -206.6C527.1 -140.8 533.6 -70.4 540 0L0 0Z" fill="#efefef"></path></g></svg>