<svg width="93" height="23" viewBox="0 0 93 23" fill="none" xmlns="http://www.w3.org/2000/svg">
<g clip-path="url(#clip0_379_16)">
<path fill-rule="evenodd" clip-rule="evenodd" d="M0.00488281 23.0006L17.8684 22.9626C19.6052 22.9858 21.3059 22.4593 22.733 21.4565L22.855 21.3686L23.0262 21.2475C24.4296 20.2103 25.4784 18.7553 26.0261 17.0855L31.9204 0.00537109L14.0569 0.0433788C12.3197 0.0197439 10.6184 0.545383 9.18995 1.5471L9.04218 1.65875C8.99527 1.68963 8.94602 1.72289 8.90145 1.75852C7.49736 2.79552 6.44782 4.25048 5.89918 5.92047L0.00488281 22.9982V23.0006ZM7.90929 10.3224C8.8172 10.0186 9.76778 9.86617 10.7239 9.871L24.8346 9.84012L27.0277 3.39052L14.5495 3.4214C13.3332 3.40577 12.1431 3.77901 11.1485 4.48802L11.0453 4.56641L10.9467 4.63768C9.96349 5.37801 9.23093 6.40876 8.84985 7.5881L7.90929 10.3224ZM23.6782 13.2181L11.2001 13.249C9.98384 13.2334 8.79373 13.6066 7.79906 14.3156L7.69585 14.394L7.59734 14.4653C6.61409 15.2056 5.88152 16.2364 5.50044 17.4157L4.72407 19.701L17.1999 19.6725C18.4165 19.6884 19.607 19.3142 20.6009 18.6035L20.6854 18.5417L20.805 18.4562C21.7883 17.7149 22.5208 16.6834 22.9019 15.5034L23.6782 13.2181Z" fill="white"/>
<path d="M36.6512 11.089C36.6512 9.91551 37.0781 9.0041 37.9319 8.35478C38.7856 7.70547 39.9756 7.3816 41.5017 7.38318C43.056 7.38318 44.2452 7.71497 45.0693 8.37854C45.8933 9.04211 46.328 9.97649 46.3734 11.1817H43.4438C43.4426 10.9725 43.3922 10.7666 43.2967 10.5812C43.2013 10.3957 43.0636 10.2359 42.895 10.1151C42.4994 9.81878 42.0141 9.67173 41.5228 9.69934C41.0119 9.66684 40.5029 9.78747 40.0592 10.0462C39.9027 10.1527 39.7749 10.297 39.6872 10.4661C39.5996 10.6352 39.5549 10.8237 39.5572 11.0147C39.5596 11.2056 39.6088 11.393 39.7006 11.5599C39.7923 11.7267 39.9236 11.8678 40.0827 11.9704C40.4937 12.1889 40.9325 12.3488 41.3868 12.4455C41.9185 12.569 42.49 12.6925 43.1014 12.8161C43.6867 12.9175 44.2562 13.0972 44.7948 13.3505C45.3149 13.5708 45.7709 13.9215 46.1201 14.3697C46.4719 14.802 46.6478 15.4038 46.6478 16.1751C46.6687 16.7018 46.5632 17.2257 46.3401 17.702C46.117 18.1782 45.7832 18.5925 45.3671 18.9093C44.5275 19.557 43.2765 19.8817 41.6143 19.8833C39.9068 19.8833 38.6113 19.5357 37.7278 18.8404C37.3003 18.5157 36.9564 18.0913 36.7253 17.6034C36.4942 17.1154 36.3827 16.5782 36.4002 16.0373H39.3274C39.4666 17.0556 40.2484 17.5648 41.673 17.5648C43.0287 17.5648 43.7073 17.1482 43.7089 16.3152C43.7177 16.1258 43.6726 15.9379 43.5791 15.7737C43.4855 15.6094 43.3474 15.4758 43.1811 15.3888C42.774 15.1659 42.3346 15.0096 41.8794 14.9255C41.3602 14.802 40.7957 14.6864 40.1859 14.5787C39.6005 14.4773 39.031 14.2976 38.4924 14.0442C37.9835 13.8051 37.5375 13.4478 37.1907 13.0013C36.8271 12.5476 36.6512 11.9133 36.6512 11.089Z" fill="white"/>
<path d="M60.0342 19.7075H57.1539V18.1088C56.79 18.6779 56.2854 19.1406 55.6903 19.4509C54.9746 19.7865 54.1917 19.9492 53.4034 19.926C52.5977 19.9318 51.7994 19.7701 51.0579 19.4509C50.3693 19.1359 49.7479 18.6881 49.2283 18.1325C48.7041 17.5512 48.2927 16.8751 48.0157 16.1394C47.7368 15.3433 47.5971 14.5041 47.6029 13.6594C47.5945 12.8152 47.7343 11.9763 48.0157 11.1817C48.2849 10.4422 48.6972 9.76458 49.2283 9.1886C49.7397 8.62355 50.3632 8.17427 51.0579 7.87018C51.7976 7.54508 52.5971 7.38312 53.4034 7.39507C54.1858 7.36155 54.9642 7.52478 55.6692 7.87018C56.2659 8.16727 56.7718 8.62297 57.1328 9.1886V7.61362H60.0131L60.0342 19.7075ZM57.1539 13.1011C57.0603 12.3263 56.6948 11.6114 56.1242 11.0867C55.5229 10.5219 54.7248 10.222 53.9053 10.2528C53.4337 10.2464 52.9661 10.3411 52.5332 10.5308C52.1372 10.7048 51.7792 10.9567 51.48 11.272C51.2003 11.5901 50.983 11.9594 50.8397 12.36C50.6843 12.7825 50.6049 13.2298 50.6052 13.6808C50.6049 14.117 50.6844 14.5495 50.8397 14.9564C50.9865 15.3481 51.2036 15.7089 51.48 16.0207C51.7792 16.3359 52.1372 16.5878 52.5332 16.7618C52.9661 16.9515 53.4337 17.0462 53.9053 17.0398C54.3263 17.0439 54.7446 16.9731 55.1414 16.8307C55.5009 16.6895 55.8334 16.4862 56.1242 16.2297C56.4069 15.9755 56.6393 15.6691 56.8091 15.327C56.99 14.9808 57.1069 14.604 57.1539 14.2153V13.1011Z" fill="white"/>
<path d="M62.2686 4.83422L65.1512 3.02881V19.7075H62.2686V4.83422Z" fill="white"/>
<path d="M79.0771 19.7075H76.1968V18.1088C75.833 18.6779 75.3284 19.1406 74.7332 19.4509C74.0167 19.7866 73.2331 19.9492 72.444 19.9261C71.643 19.9299 70.8497 19.7682 70.1125 19.4509C69.424 19.1359 68.8026 18.6881 68.283 18.1325C67.7588 17.5512 67.3474 16.8751 67.0704 16.1394C66.7915 15.3433 66.6518 14.5041 66.6576 13.6594C66.6492 12.8152 66.789 11.9763 67.0704 11.1817C67.3396 10.4422 67.7519 9.76458 68.283 9.1886C68.7944 8.62355 69.4178 8.17427 70.1125 7.87018C70.8522 7.54508 71.6518 7.38312 72.4581 7.39507C73.2405 7.36155 74.0189 7.52478 74.7238 7.87018C75.3206 8.16727 75.8265 8.62297 76.1874 9.1886V7.61362H79.0677L79.0771 19.7075ZM76.1968 13.1011C76.1032 12.3263 75.7378 11.6114 75.1671 11.0867C74.5659 10.5219 73.7678 10.222 72.9483 10.2528C72.4766 10.2461 72.009 10.3408 71.5761 10.5308C71.1801 10.7048 70.8221 10.9567 70.523 11.272C70.2433 11.5901 70.026 11.9594 69.8827 12.36C69.7273 12.7825 69.6478 13.2298 69.6481 13.6808C69.6478 14.117 69.7273 14.5495 69.8827 14.9564C70.0295 15.3481 70.2466 15.7089 70.523 16.0207C70.8221 16.3359 71.1801 16.5878 71.5761 16.7618C72.009 16.9518 72.4766 17.0465 72.9483 17.0398C73.3692 17.0437 73.7875 16.9729 74.1844 16.8307C74.5439 16.6895 74.8764 16.4862 75.1671 16.2297C75.4499 15.9755 75.6823 15.6691 75.852 15.327C76.032 14.9804 76.1488 14.6038 76.1968 14.2153V13.1011Z" fill="white"/>
<path d="M80.5873 13.6594C80.5782 12.8154 80.7172 11.9764 80.9978 11.1817C81.2679 10.4426 81.6801 9.76519 82.2104 9.18859C82.7218 8.62354 83.3452 8.17425 84.0399 7.87016C84.7834 7.54396 85.587 7.382 86.3972 7.39505C87.1789 7.36124 87.9566 7.52449 88.6606 7.87016C89.2521 8.17517 89.7561 8.6292 90.1242 9.18859V4.83422L93.0069 3.02881V19.7075H90.1172V18.1325C89.7352 18.6883 89.2247 19.141 88.6301 19.4509C87.9234 19.7885 87.1477 19.9513 86.3667 19.926C85.565 19.9299 84.7709 19.7682 84.0329 19.4509C83.3444 19.1359 82.723 18.6881 82.2034 18.1325C81.6799 17.5506 81.2686 16.8746 80.9908 16.1394C80.7151 15.3427 80.5786 14.5035 80.5873 13.6594V13.6594ZM90.1242 13.0346C90.0285 12.2503 89.645 11.5312 89.05 11.0201C88.4416 10.5051 87.6683 10.2331 86.8757 10.2552C86.4041 10.249 85.9365 10.3437 85.5036 10.5331C85.1082 10.7072 84.751 10.9591 84.4528 11.2743C84.173 11.5925 83.9557 11.9618 83.8124 12.3623C83.6571 12.7849 83.5776 13.2322 83.5779 13.6831C83.5776 14.1194 83.6571 14.5519 83.8124 14.9588C83.9592 15.3505 84.1763 15.7113 84.4528 16.023C84.751 16.3382 85.1082 16.5901 85.5036 16.7642C85.9365 16.9537 86.4041 17.0484 86.8757 17.0421C87.2891 17.0477 87.7 16.9768 88.0883 16.8331C88.4505 16.7071 88.7851 16.5111 89.0734 16.2558C89.3547 16.0179 89.5873 15.7265 89.7583 15.3983C89.9409 15.0595 90.0646 14.6915 90.1242 14.3103V13.0346Z" fill="white"/>
</g>
<defs>
<clipPath id="clip0_379_16">
<rect width="93" height="23" fill="white"/>
</clipPath>
</defs>
</svg>
